Coordinates
version=1
nRows=32
nColumns=22
inDegrees=yes

Units are S.I. units (second, meters, Newtons, ...)
If the header above contains a line with 'inDegrees', this indicates whether rotational values are in degrees (yes) or radians (no).

endheader
time	pelvis_tilt	pelvis_list	pelvis_rotation	pelvis_tx	pelvis_ty	pelvis_tz	hip_flexion_r	hip_adduction_r	hip_rotation_r	knee_angle_r	ankle_angle_r	subtalar_angle_r	hip_flexion_l	hip_adduction_l	hip_rotation_l	knee_angle_l	ankle_angle_l	subtalar_angle_l	lumbar_extension	lumbar_bending	lumbar_rotation
      1.45000000	    -11.64586099	      6.91450541	    -49.04310011	     -0.94162875	      0.97106025	     -0.15252010	     17.04982953	      8.05853505	     -6.66750177	    -17.30113562	     18.66597571	    -12.75028468	     25.67412832	     -6.45141440	     -0.55275149	    -30.93918664	     21.60530704	      2.06711454	      0.89800794	      5.36207313	      5.64304442
      1.46000000	    -11.73871818	      6.82606633	    -49.09770331	     -0.94209257	      0.97074851	     -0.15121874	     16.96763037	      8.27738775	     -6.66106958	    -17.24460301	     18.69850385	    -12.78197073	     26.18933057	     -6.63075819	     -0.27107614	    -31.99446717	     21.49344029	      2.18120800	      0.78000849	      5.51324834	      5.72227065
      1.47000000	    -11.82019599	      6.72770499	    -49.14681967	     -0.94246840	      0.97045924	     -0.14988598	     16.86139135	      8.49213677	     -6.64552943	    -17.18289335	     18.74150901	    -12.81106635	     26.72596003	     -6.79627487	      0.02916334	    -33.11985580	     21.35109167	      2.26758085	      0.64892419	      5.66259494	      5.79556407
      1.48000000	    -11.89889521	      6.62701232	    -49.18431923	     -0.94274429	      0.97017188	     -0.14853537	     16.74691372	      8.70106288	     -6.63283104	    -17.12193570	     18.78543656	    -12.84138277	     27.29800416	     -6.94505738	      0.35501103	    -34.31366027	     21.18364844	      2.34729762	      0.51931935	      5.81248745	      5.86322666
      1.49000000	    -11.96896902	      6.51791150	    -49.21321956	     -0.94289763	      0.96990201	     -0.14715027	     16.60754662	      8.90467585	     -6.61716128	    -17.05108641	     18.83614379	    -12.87087167	     27.89271069	     -7.08057464	      0.68554988	    -35.56744547	     20.99848733	      2.41482680	      0.38417358	      5.96492209	      5.92506377
      1.50000000	    -12.02642861	      6.40277427	    -49.23576126	     -0.94293323	      0.96965323	     -0.14573540	     16.44543852	      9.09772992	     -6.60083467	    -16.97545665	     18.89200024	    -12.89990290	     28.50260421	     -7.19857302	      1.01424028	    -36.86196934	     20.80692924	      2.47258600	      0.23979005	      6.11227034	      5.98417041
      1.51000000	    -12.06232032	      6.27785526	    -49.25690857	     -0.94284610	      0.96944536	     -0.14427940	     16.24902831	      9.27819272	     -6.57336998	    -16.89148990	     18.95572938	    -12.92659635	     29.10994735	     -7.29862477	      1.32304604	    -38.17930074	     20.62578907	      2.50760837	      0.07485827	      6.25053898	      6.04248551
      1.52000000	    -12.08154577	      6.15441183	    -49.27771538	     -0.94263416	      0.96925916	     -0.14277911	     16.03445579	      9.44045960	     -6.54600359	    -16.80724560	     19.02480504	    -12.95647760	     29.71759684	     -7.37637425	      1.61013174	    -39.49431506	     20.47508854	      2.52258553	     -0.09549007	      6.37512112	      6.10727350
      1.53000000	    -12.08026132	      6.02996668	    -49.30433261	     -0.94230796	      0.96910903	     -0.14122315	     15.79490111	      9.58569297	     -6.50632218	    -16.71946134	     19.10412069	    -12.98954159	     30.31273030	     -7.43593977	      1.85984488	    -40.78398810	     20.37189823	      2.50086701	     -0.27687925	      6.48317557	      6.18132846
      1.54000000	    -12.04884515	      5.91182588	    -49.34309494	     -0.94186695	      0.96899762	     -0.13958336	     15.52724171	      9.70331279	     -6.45643043	    -16.62821843	     19.21577006	    -13.02514229	     30.88339330	     -7.47184666	      2.04958261	    -42.02088115	     20.31763462	      2.43862609	     -0.46708393	      6.55746135	      6.27730554
      1.55000000	    -12.01926579	      5.80314226	    -49.38357651	     -0.94134449	      0.96888421	     -0.13794507	     15.27663489	      9.81278658	     -6.38653503	    -16.55975986	     19.28341784	    -13.07047325	     31.46343947	     -7.48526371	      2.24229657	    -43.19940600	     20.34822506	      2.32659270	     -0.65224107	      6.63298112	      6.36919028
      1.56000000	    -11.97159634	      5.71359949	    -49.43748622	     -0.94072417	      0.96878411	     -0.13621440	     15.01707018	      9.89558120	     -6.31366032	    -16.48685856	     19.39490610	    -13.12357909	     32.03234734	     -7.47924937	      2.36601443	    -44.29364485	     20.40972359	      2.17786617	     -0.82610338	      6.67279691	      6.48498409
      1.57000000	    -11.90553648	      5.64488194	    -49.49911431	     -0.94000366	      0.96870315	     -0.13443006	     14.76067338	      9.94734685	     -6.22888731	    -16.42834622	     19.51441980	    -13.17691248	     32.59127749	     -7.44302084	      2.43854903	    -45.28874719	     20.49329472	      2.01519820	     -0.99055871	      6.68155502	      6.61297752
      1.58000000	    -11.84422448	      5.59558372	    -49.56828974	     -0.93920886	      0.96861389	     -0.13259423	     14.52221761	      9.98998863	     -6.12477105	    -16.37974442	     19.62093818	    -13.23709648	     33.15826079	     -7.39622725	      2.47061371	    -46.17872957	     20.58654624	      1.82396074	     -1.13286121	      6.68018852	      6.74860447
      1.59000000	    -11.79837396	      5.58592636	    -49.64973014	     -0.93835947	      0.96848800	     -0.13072997	     14.33411839	     10.01933068	     -5.98715721	    -16.35475651	     19.68551462	    -13.32718235	     33.75226456	     -7.33117771	      2.46965616	    -46.94729957	     20.66939082	      1.53771046	     -1.23085901	      6.66379348	      6.91043237
      1.60000000	    -11.69370909	      5.56664799	    -49.71871256	     -0.93734274	      0.96846975	     -0.12878213	     14.08142578	      9.99646894	     -5.90613475	    -16.31792276	     19.84139206	    -13.36330903	     34.27433089	     -7.22929176	      2.39217275	    -47.57441982	     20.68094797	      1.44097151	     -1.37421243	      6.60316796	      7.03575362
      1.61000000	    -11.64561648	      5.62263695	    -49.84351757	     -0.93635991	      0.96832235	     -0.12674458	     13.93858475	      9.98552115	     -5.71481600	    -16.31323289	     19.90535373	    -13.45342441	     34.87266531	     -7.16272197	      2.21169963	    -48.06823034	     20.70357683	      1.14804100	     -1.41051077	      6.53495062	      7.23214163
      1.62000000	    -11.56105888	      5.66920895	    -49.93966413	     -0.93521283	      0.96823810	     -0.12470035	     13.76007828	      9.93547073	     -5.58157857	    -16.31248427	     20.03216846	    -13.51682611	     35.42170195	     -7.05473757	      2.01371586	    -48.41329676	     20.63972656	      0.96455479	     -1.48406376	      6.44898597	      7.38257741
      1.63000000	    -11.47264970	      5.72808510	    -50.03669853	     -0.93395753	      0.96815918	     -0.12261033	     13.58414686	      9.86897946	     -5.45319907	    -16.31378587	     20.15408618	    -13.56014925	     35.95505659	     -6.93962684	      1.76760295	    -48.60702557	     20.53412093	      0.83485918	     -1.55068006	      6.35425011	      7.53054384
      1.64000000	    -11.38188274	      5.79556125	    -50.12743911	     -0.93259447	      0.96807051	     -0.12049550	     13.41054382	      9.78880615	     -5.33199393	    -16.31795612	     20.29139821	    -13.59007135	     36.47502204	     -6.81479239	      1.49000994	    -48.65416667	     20.37615419	      0.75076048	     -1.61741398	      6.25531746	      7.66826317
      1.65000000	    -11.29108721	      5.85822314	    -50.20256641	     -0.93108507	      0.96797204	     -0.11836069	     13.22642143	      9.70307719	     -5.21540316	    -16.32200448	     20.44102928	    -13.60843171	     36.97665571	     -6.67942237	      1.20417376	    -48.56462936	     20.16934225	      0.71290348	     -1.68763708	      6.16978447	      7.78711744
      1.66000000	    -11.19562495	      5.94737384	    -50.28889700	     -0.92950097	      0.96783383	     -0.11615921	     13.06041327	      9.59300645	     -5.10267599	    -16.33828872	     20.59847299	    -13.61942202	     37.46806226	     -6.53245142	      0.87555439	    -48.32676003	     19.96045863	      0.70330929	     -1.74339473	      6.05725346	      7.91952582
      1.67000000	    -11.09919803	      6.04986985	    -50.38548943	     -0.92780545	      0.96765356	     -0.11390109	     12.90845803	      9.46699267	     -5.00328817	    -16.37674079	     20.76641482	    -13.61935642	     37.94279184	     -6.37820982	      0.52365604	    -47.95173349	     19.77537618	      0.73454098	     -1.78983910	      5.93943078	      8.06951358
      1.68000000	    -11.01471331	      6.12243252	    -50.45454970	     -0.92600670	      0.96746241	     -0.11160356	     12.71798905	      9.36864560	     -4.88532728	    -16.38252176	     20.94527243	    -13.61973075	     38.39929273	     -6.22549930	      0.22261249	    -47.46887055	     19.52166340	      0.79187569	     -1.85983725	      5.85301752	      8.17394974
      1.69000000	    -10.92042791	      6.20706051	    -50.54057192	     -0.92411895	      0.96723696	     -0.10921621	     12.52934317	      9.25164479	     -4.76921388	    -16.40402160	     21.13383961	    -13.61773372	     38.83016459	     -6.06511181	     -0.10208767	    -46.86231307	     19.28869004	      0.88324560	     -1.92836048	      5.74585123	      8.30412851
      1.70000000	    -10.83246540	      6.27836656	    -50.62454698	     -0.92213507	      0.96697933	     -0.10675830	     12.32247298	      9.14553859	     -4.65169169	    -16.41765139	     21.32521986	    -13.61662547	     39.24026750	     -5.90928715	     -0.40349590	    -46.15562475	     19.04634928	      0.99628792	     -2.00767181	      5.65137097	      8.42983991
      1.71000000	    -10.74855461	      6.33887894	    -50.70719661	     -0.92005339	      0.96669246	     -0.10422301	     12.09460501	      9.04779383	     -4.53220003	    -16.41722174	     21.52034080	    -13.61868564	     39.62866309	     -5.75448126	     -0.68232640	    -45.35687061	     18.78343041	      1.12504781	     -2.09525278	      5.56679831	      8.55202623
      1.72000000	    -10.64452225	      6.39048698	    -50.81259954	     -0.91786473	      0.96640203	     -0.10158253	     11.83948031	      8.93629720	     -4.42871083	    -16.42466562	     21.72804322	    -13.61775584	     39.96791996	     -5.59902457	     -0.97692568	    -44.46726918	     18.52941523	      1.32107538	     -2.20738014	      5.46825826	      8.71425110
      1.73000000	    -10.56140745	      6.42395822	    -50.89817666	     -0.91555679	      0.96606984	     -0.09888307	     11.55328454	      8.85197032	     -4.31390940	    -16.38728613	     21.92675004	    -13.62079289	     40.30147353	     -5.44590828	     -1.20866630	    -43.51516037	     18.20755649	      1.50682612	     -2.32014387	      5.40237258	      8.83145279
      1.74000000	    -10.48154282	      6.44644402	    -50.98409405	     -0.91313563	      0.96571134	     -0.09609868	     11.23979826	      8.77515079	     -4.20148736	    -16.32726550	     22.12678092	    -13.62163743	     40.61236969	     -5.29583260	     -1.41676066	    -42.50444215	     17.85881772	      1.71525206	     -2.44077386	      5.34726007	      8.94232027
      1.75000000	    -10.40209189	      6.45594179	    -51.07314678	     -0.91059409	      0.96533057	     -0.09321614	     10.89195005	      8.70465049	     -4.09586003	    -16.23963883	     22.32833514	    -13.61360121	     40.89546326	     -5.15148070	     -1.60320589	    -41.44457147	     17.49160404	      1.96990765	     -2.57055371	      5.30099665	      9.05136531
      1.76000000	    -10.32875096	      6.45257136	    -51.16155009	     -0.90794174	      0.96492314	     -0.09023373	     10.51269949	      8.64498942	     -3.99551855	    -16.12207309	     22.52803792	    -13.59182113	     41.15718924	     -5.01804197	     -1.76492215	    -40.34923993	     17.11391980	      2.27368416	     -2.70595954	      5.26671253	      9.15140210
